<svg width="250" height="230" style="fill: none; stroke: black; stroke-width: 1; min-width: 250px;" xmlns="http://www.w3.org/2000/svg">
  <rect x="50" y="60.0" width="50" height="50"></rect>
  <text x="50" y="85.0" style="line-height: 0; font-size: 20px; opacity: 2.59447e-07;">false</text>
  <text x="50" y="85.0" style="line-height: 0; font-size: 20px; opacity: 8.1958e-07;">true</text>
  <text x="50" y="85.0" style="line-height: 0; font-size: 20px; opacity: 4.93974e-07;">a</text>
  <text x="50" y="85.0" style="line-height: 0; font-size: 20px; opacity: 4.69854e-07;">b</text>
  <text x="50" y="85.0" style="line-height: 0; font-size: 20px; opacity: 4.28428e-07;">not_a</text>
  <text x="50" y="85.0" style="line-height: 0; font-size: 20px; opacity: 7.09398e-07;">not_b</text>
  <text x="50" y="85.0" style="line-height: 0; font-size: 20px; opacity: 1.26293e-07;">and</text>
  <text x="50" y="85.0" style="line-height: 0; font-size: 20px; opacity: 1.35992e-06;">nand</text>
  <text x="50" y="85.0" style="line-height: 0; font-size: 20px; opacity: 8.45709e-08;">eq</text>
  <text x="50" y="85.0" style="line-height: 0; font-size: 20px; opacity: 2.45438e-06;">or</text>
  <text x="50" y="85.0" style="line-height: 0; font-size: 20px; opacity: 3.16498e-06;">nor</text>
  <text x="50" y="85.0" style="line-height: 0; font-size: 20px; opacity: 0.99999;">xor</text>
  <line x1="0" y1="25.0" x2="50" y2="70.0" style="opacity: 1.61774e-05;"></line>
  <line x1="0" y1="85.0" x2="50" y2="70.0" style="opacity: 8.7815e-06;"></line>
  <line x1="0" y1="145.0" x2="50" y2="70.0" style="opacity: 1.15318e-05;"></line>
  <line x1="0" y1="205.0" x2="50" y2="70.0" style="opacity: 0.999964;"></line>
  <line x1="0" y1="25.0" x2="50" y2="100.0" style="opacity: 6.99175e-06;"></line>
  <line x1="0" y1="85.0" x2="50" y2="100.0" style="opacity: 0.999969;"></line>
  <line x1="0" y1="145.0" x2="50" y2="100.0" style="opacity: 1.71794e-05;"></line>
  <line x1="0" y1="205.0" x2="50" y2="100.0" style="opacity: 6.37462e-06;"></line>
  <rect x="50" y="120.0" width="50" height="50"></rect>
  <text x="50" y="145.0" style="line-height: 0; font-size: 20px; opacity: 3.84238e-07;">false</text>
  <text x="50" y="145.0" style="line-height: 0; font-size: 20px; opacity: 4.0541e-06;">true</text>
  <text x="50" y="145.0" style="line-height: 0; font-size: 20px; opacity: 1.69691e-06;">a</text>
  <text x="50" y="145.0" style="line-height: 0; font-size: 20px; opacity: 1.6288e-06;">b</text>
  <text x="50" y="145.0" style="line-height: 0; font-size: 20px; opacity: 1.23159e-06;">not_a</text>
  <text x="50" y="145.0" style="line-height: 0; font-size: 20px; opacity: 7.55809e-07;">not_b</text>
  <text x="50" y="145.0" style="line-height: 0; font-size: 20px; opacity: 3.04204e-07;">and</text>
  <text x="50" y="145.0" style="line-height: 0; font-size: 20px; opacity: 5.82377e-06;">nand</text>
  <text x="50" y="145.0" style="line-height: 0; font-size: 20px; opacity: 1.72786e-07;">eq</text>
  <text x="50" y="145.0" style="line-height: 0; font-size: 20px; opacity: 2.0618e-05;">or</text>
  <text x="50" y="145.0" style="line-height: 0; font-size: 20px; opacity: 5.94573e-06;">nor</text>
  <text x="50" y="145.0" style="line-height: 0; font-size: 20px; opacity: 0.999957;">xor</text>
  <line x1="0" y1="25.0" x2="50" y2="130.0" style="opacity: 6.91653e-06;"></line>
  <line x1="0" y1="85.0" x2="50" y2="130.0" style="opacity: 3.7705e-05;"></line>
  <line x1="0" y1="145.0" x2="50" y2="130.0" style="opacity: 0.99995;"></line>
  <line x1="0" y1="205.0" x2="50" y2="130.0" style="opacity: 5.29943e-06;"></line>
  <line x1="0" y1="25.0" x2="50" y2="160.0" style="opacity: 0.999898;"></line>
  <line x1="0" y1="85.0" x2="50" y2="160.0" style="opacity: 1.8683e-05;"></line>
  <line x1="0" y1="145.0" x2="50" y2="160.0" style="opacity: 3.58684e-06;"></line>
  <line x1="0" y1="205.0" x2="50" y2="160.0" style="opacity: 7.9875e-05;"></line>
  <rect x="150" y="90.0" width="50" height="50"></rect>
  <text x="150" y="115.0" style="line-height: 0; font-size: 20px; opacity: 8.80683e-05;">false</text>
  <text x="150" y="115.0" style="line-height: 0; font-size: 20px; opacity: 1.35245e-05;">true</text>
  <text x="150" y="115.0" style="line-height: 0; font-size: 20px; opacity: 2.94726e-06;">a</text>
  <text x="150" y="115.0" style="line-height: 0; font-size: 20px; opacity: 4.60442e-06;">b</text>
  <text x="150" y="115.0" style="line-height: 0; font-size: 20px; opacity: 5.38597e-05;">not_a</text>
  <text x="150" y="115.0" style="line-height: 0; font-size: 20px; opacity: 2.84901e-05;">not_b</text>
  <text x="150" y="115.0" style="line-height: 0; font-size: 20px; opacity: 4.21956e-05;">and</text>
  <text x="150" y="115.0" style="line-height: 0; font-size: 20px; opacity: 1.04798e-05;">nand</text>
  <text x="150" y="115.0" style="line-height: 0; font-size: 20px; opacity: 0.499845;">eq</text>
  <text x="150" y="115.0" style="line-height: 0; font-size: 20px; opacity: 9.21696e-07;">or</text>
  <text x="150" y="115.0" style="line-height: 0; font-size: 20px; opacity: 0.499909;">nor</text>
  <text x="150" y="115.0" style="line-height: 0; font-size: 20px; opacity: 6.3329e-07;">xor</text>
  <line x1="100" y1="85.0" x2="150" y2="100.0" style="opacity: 1.18119e-05;"></line>
  <line x1="100" y1="145.0" x2="150" y2="100.0" style="opacity: 0.999988;"></line>
  <line x1="100" y1="85.0" x2="150" y2="130.0" style="opacity: 0.999688;"></line>
  <line x1="100" y1="145.0" x2="150" y2="130.0" style="opacity: 0.000311583;"></line>
  <line x1="200" y1="115.0" x2="250" y2="115.0"></line>
</svg>
