<svg width="250" height="230" style="background: white; fill: none; stroke: black; stroke-width: 1; min-width: 250px;" xmlns="http://www.w3.org/2000/svg">
  <rect x="50" y="60.0" width="50" height="50"></rect>
  <text x="50" y="85.0" style="line-height: 0; font-size: 20px; opacity: 0.0833333;">false</text>
  <text x="50" y="85.0" style="line-height: 0; font-size: 20px; opacity: 0.0833333;">true</text>
  <text x="50" y="85.0" style="line-height: 0; font-size: 20px; opacity: 0.0833333;">a</text>
  <text x="50" y="85.0" style="line-height: 0; font-size: 20px; opacity: 0.0833333;">b</text>
  <text x="50" y="85.0" style="line-height: 0; font-size: 20px; opacity: 0.0833333;">not_a</text>
  <text x="50" y="85.0" style="line-height: 0; font-size: 20px; opacity: 0.0833333;">not_b</text>
  <text x="50" y="85.0" style="line-height: 0; font-size: 20px; opacity: 0.0833333;">and</text>
  <text x="50" y="85.0" style="line-height: 0; font-size: 20px; opacity: 0.0833333;">nand</text>
  <text x="50" y="85.0" style="line-height: 0; font-size: 20px; opacity: 0.0833333;">eq</text>
  <text x="50" y="85.0" style="line-height: 0; font-size: 20px; opacity: 0.0833333;">or</text>
  <text x="50" y="85.0" style="line-height: 0; font-size: 20px; opacity: 0.0833333;">nor</text>
  <text x="50" y="85.0" style="line-height: 0; font-size: 20px; opacity: 0.0833333;">xor</text>
  <line x1="0" y1="25.0" x2="50" y2="70.0" style="opacity: 0.25;"></line>
  <line x1="0" y1="85.0" x2="50" y2="70.0" style="opacity: 0.25;"></line>
  <line x1="0" y1="145.0" x2="50" y2="70.0" style="opacity: 0.25;"></line>
  <line x1="0" y1="205.0" x2="50" y2="70.0" style="opacity: 0.25;"></line>
  <line x1="0" y1="25.0" x2="50" y2="100.0" style="opacity: 0.25;"></line>
  <line x1="0" y1="85.0" x2="50" y2="100.0" style="opacity: 0.25;"></line>
  <line x1="0" y1="145.0" x2="50" y2="100.0" style="opacity: 0.25;"></line>
  <line x1="0" y1="205.0" x2="50" y2="100.0" style="opacity: 0.25;"></line>
  <rect x="50" y="120.0" width="50" height="50"></rect>
  <text x="50" y="145.0" style="line-height: 0; font-size: 20px; opacity: 0.0833333;">false</text>
  <text x="50" y="145.0" style="line-height: 0; font-size: 20px; opacity: 0.0833333;">true</text>
  <text x="50" y="145.0" style="line-height: 0; font-size: 20px; opacity: 0.0833333;">a</text>
  <text x="50" y="145.0" style="line-height: 0; font-size: 20px; opacity: 0.0833333;">b</text>
  <text x="50" y="145.0" style="line-height: 0; font-size: 20px; opacity: 0.0833333;">not_a</text>
  <text x="50" y="145.0" style="line-height: 0; font-size: 20px; opacity: 0.0833333;">not_b</text>
  <text x="50" y="145.0" style="line-height: 0; font-size: 20px; opacity: 0.0833333;">and</text>
  <text x="50" y="145.0" style="line-height: 0; font-size: 20px; opacity: 0.0833333;">nand</text>
  <text x="50" y="145.0" style="line-height: 0; font-size: 20px; opacity: 0.0833333;">eq</text>
  <text x="50" y="145.0" style="line-height: 0; font-size: 20px; opacity: 0.0833333;">or</text>
  <text x="50" y="145.0" style="line-height: 0; font-size: 20px; opacity: 0.0833333;">nor</text>
  <text x="50" y="145.0" style="line-height: 0; font-size: 20px; opacity: 0.0833333;">xor</text>
  <line x1="0" y1="25.0" x2="50" y2="130.0" style="opacity: 0.25;"></line>
  <line x1="0" y1="85.0" x2="50" y2="130.0" style="opacity: 0.25;"></line>
  <line x1="0" y1="145.0" x2="50" y2="130.0" style="opacity: 0.25;"></line>
  <line x1="0" y1="205.0" x2="50" y2="130.0" style="opacity: 0.25;"></line>
  <line x1="0" y1="25.0" x2="50" y2="160.0" style="opacity: 0.25;"></line>
  <line x1="0" y1="85.0" x2="50" y2="160.0" style="opacity: 0.25;"></line>
  <line x1="0" y1="145.0" x2="50" y2="160.0" style="opacity: 0.25;"></line>
  <line x1="0" y1="205.0" x2="50" y2="160.0" style="opacity: 0.25;"></line>
  <rect x="150" y="90.0" width="50" height="50"></rect>
  <text x="150" y="115.0" style="line-height: 0; font-size: 20px; opacity: 0.0833333;">false</text>
  <text x="150" y="115.0" style="line-height: 0; font-size: 20px; opacity: 0.0833333;">true</text>
  <text x="150" y="115.0" style="line-height: 0; font-size: 20px; opacity: 0.0833333;">a</text>
  <text x="150" y="115.0" style="line-height: 0; font-size: 20px; opacity: 0.0833333;">b</text>
  <text x="150" y="115.0" style="line-height: 0; font-size: 20px; opacity: 0.0833333;">not_a</text>
  <text x="150" y="115.0" style="line-height: 0; font-size: 20px; opacity: 0.0833333;">not_b</text>
  <text x="150" y="115.0" style="line-height: 0; font-size: 20px; opacity: 0.0833333;">and</text>
  <text x="150" y="115.0" style="line-height: 0; font-size: 20px; opacity: 0.0833333;">nand</text>
  <text x="150" y="115.0" style="line-height: 0; font-size: 20px; opacity: 0.0833333;">eq</text>
  <text x="150" y="115.0" style="line-height: 0; font-size: 20px; opacity: 0.0833333;">or</text>
  <text x="150" y="115.0" style="line-height: 0; font-size: 20px; opacity: 0.0833333;">nor</text>
  <text x="150" y="115.0" style="line-height: 0; font-size: 20px; opacity: 0.0833333;">xor</text>
  <line x1="100" y1="85.0" x2="150" y2="100.0" style="opacity: 0.5;"></line>
  <line x1="100" y1="145.0" x2="150" y2="100.0" style="opacity: 0.5;"></line>
  <line x1="100" y1="85.0" x2="150" y2="130.0" style="opacity: 0.5;"></line>
  <line x1="100" y1="145.0" x2="150" y2="130.0" style="opacity: 0.5;"></line>
  <line x1="200" y1="115.0" x2="250" y2="115.0"></line>
</svg>
